<?xml version="1.0" encoding="UTF-8"?>
<!DOCTYPE svg PUBLIC "-//W3C//DTD SVG 1.1//EN" "http://www.w3.org/Graphics/SVG/1.1/DTD/svg11.dtd">
<svg xmlns="http://www.w3.org/2000/svg" version="1.1" width="512px" height="512px" style="shape-rendering:geometricPrecision; text-rendering:geometricPrecision; image-rendering:optimizeQuality; fill-rule:evenodd; clip-rule:evenodd" xmlns:xlink="http://www.w3.org/1999/xlink">
<g><path style="opacity:1" fill="#4254a4" d="M 233.5,-0.5 C 248.167,-0.5 262.833,-0.5 277.5,-0.5C 377.805,11.9821 449.305,63.9821 492,155.5C 502.297,180.687 508.797,206.687 511.5,233.5C 511.5,248.167 511.5,262.833 511.5,277.5C 511.167,277.5 510.833,277.5 510.5,277.5C 509.681,280.305 509.181,283.305 509,286.5C 483.663,259.33 457.83,232.663 431.5,206.5C 431.167,206.5 430.833,206.5 430.5,206.5C 428.977,203.636 426.643,201.969 423.5,201.5C 417.167,194.5 410.5,187.833 403.5,181.5C 401.22,178.393 398.22,176.227 394.5,175C 382.5,174.333 370.5,174.333 358.5,175C 354.081,177.242 351.414,180.742 350.5,185.5C 349.504,199.323 349.171,213.323 349.5,227.5C 301.833,227.5 254.167,227.5 206.5,227.5C 191.116,211.115 175.116,195.448 158.5,180.5C 156.737,177.444 154.07,175.611 150.5,175C 138.833,174.333 127.167,174.333 115.5,175C 111.288,176.956 108.621,180.123 107.5,184.5C 106.508,191.648 106.175,198.981 106.5,206.5C 105.326,204.559 103.659,203.059 101.5,202C 95.8333,201.333 90.1667,201.333 84.5,202C 82.0771,203.571 80.7438,205.737 80.5,208.5C 79.336,239.997 79.1693,271.664 80,303.5C 80.9793,305.968 82.4793,307.968 84.5,309.5C 151.327,376.494 218.661,442.994 286.5,509C 283.305,509.181 280.305,509.681 277.5,510.5C 277.5,510.833 277.5,511.167 277.5,511.5C 262.833,511.5 248.167,511.5 233.5,511.5C 133.195,499.018 61.6947,447.018 19,355.5C 8.70332,330.313 2.20332,304.313 -0.5,277.5C -0.5,262.833 -0.5,248.167 -0.5,233.5C 11.9821,133.195 63.9821,61.6947 155.5,19C 180.687,8.70332 206.687,2.20332 233.5,-0.5 Z"/></g>
<g><path style="opacity:1" fill="#fec81b" d="M 158.5,180.5 C 159.942,181.82 160.608,183.486 160.5,185.5C 160.5,208.833 160.5,232.167 160.5,255.5C 142.833,255.5 125.167,255.5 107.5,255.5C 107.5,231.833 107.5,208.167 107.5,184.5C 108.621,180.123 111.288,176.956 115.5,175C 127.167,174.333 138.833,174.333 150.5,175C 154.07,175.611 156.737,177.444 158.5,180.5 Z"/></g>
<g><path style="opacity:1" fill="#fec81b" d="M 403.5,181.5 C 403.5,182.5 403.5,183.5 403.5,184.5C 403.5,208.167 403.5,231.833 403.5,255.5C 385.833,255.5 368.167,255.5 350.5,255.5C 350.5,246.5 350.5,237.5 350.5,228.5C 350.5,214.167 350.5,199.833 350.5,185.5C 351.414,180.742 354.081,177.242 358.5,175C 370.5,174.333 382.5,174.333 394.5,175C 398.22,176.227 401.22,178.393 403.5,181.5 Z"/></g>
<g><path style="opacity:1" fill="#0c2a6f" d="M 403.5,181.5 C 410.5,187.833 417.167,194.5 423.5,201.5C 418.821,201.334 414.155,201.501 409.5,202C 407.313,203.025 405.646,204.525 404.5,206.5C 404.825,198.981 404.492,191.648 403.5,184.5C 403.5,183.5 403.5,182.5 403.5,181.5 Z"/></g>
<g><path style="opacity:1" fill="#062b72" d="M 158.5,180.5 C 175.116,195.448 191.116,211.115 206.5,227.5C 206.5,227.833 206.5,228.167 206.5,228.5C 191.5,228.5 176.5,228.5 161.5,228.5C 161.829,213.99 161.496,199.657 160.5,185.5C 160.608,183.486 159.942,181.82 158.5,180.5 Z"/></g>
<g><path style="opacity:1" fill="#fe7e4f" d="M 106.5,206.5 C 106.5,222.833 106.5,239.167 106.5,255.5C 97.8333,255.5 89.1667,255.5 80.5,255.5C 80.5,239.833 80.5,224.167 80.5,208.5C 80.7438,205.737 82.0771,203.571 84.5,202C 90.1667,201.333 95.8333,201.333 101.5,202C 103.659,203.059 105.326,204.559 106.5,206.5 Z"/></g>
<g><path style="opacity:1" fill="#fe7e4f" d="M 423.5,201.5 C 426.643,201.969 428.977,203.636 430.5,206.5C 430.5,222.833 430.5,239.167 430.5,255.5C 421.833,255.5 413.167,255.5 404.5,255.5C 404.5,239.167 404.5,222.833 404.5,206.5C 405.646,204.525 407.313,203.025 409.5,202C 414.155,201.501 418.821,201.334 423.5,201.5 Z"/></g>
<g><path style="opacity:1" fill="#012c74" d="M 431.5,206.5 C 457.83,232.663 483.663,259.33 509,286.5C 509.181,283.305 509.681,280.305 510.5,277.5C 501.364,364.648 459.698,431.148 385.5,477C 352.1,496.522 316.1,507.689 277.5,510.5C 280.305,509.681 283.305,509.181 286.5,509C 218.661,442.994 151.327,376.494 84.5,309.5C 90.1764,309.666 95.8431,309.499 101.5,309C 103.687,307.975 105.354,306.475 106.5,304.5C 106.334,311.841 106.5,319.174 107,326.5C 108.105,331.206 110.938,334.373 115.5,336C 127.833,336.667 140.167,336.667 152.5,336C 157.266,333.571 160.1,329.737 161,324.5C 161.5,310.504 161.667,296.504 161.5,282.5C 224.167,282.5 286.833,282.5 349.5,282.5C 349.333,296.504 349.5,310.504 350,324.5C 350.9,329.737 353.734,333.571 358.5,336C 370.833,336.667 383.167,336.667 395.5,336C 400.099,334.402 402.932,331.235 404,326.5C 404.5,319.174 404.666,311.841 404.5,304.5C 407.764,308.946 412.264,310.613 418,309.5C 424.086,310.93 428.42,308.93 431,303.5C 431.5,271.168 431.667,238.835 431.5,206.5 Z"/></g>
<g><path style="opacity:1" fill="#424b7b" d="M 350.5,185.5 C 350.5,199.833 350.5,214.167 350.5,228.5C 350.167,228.5 349.833,228.5 349.5,228.5C 301.833,228.5 254.167,228.5 206.5,228.5C 206.5,228.167 206.5,227.833 206.5,227.5C 254.167,227.5 301.833,227.5 349.5,227.5C 349.171,213.323 349.504,199.323 350.5,185.5 Z"/></g>
<g><path style="opacity:1" fill="#fefffe" d="M 161.5,228.5 C 176.5,228.5 191.5,228.5 206.5,228.5C 254.167,228.5 301.833,228.5 349.5,228.5C 349.5,237.5 349.5,246.5 349.5,255.5C 286.833,255.5 224.167,255.5 161.5,255.5C 161.5,246.5 161.5,237.5 161.5,228.5 Z"/></g>
<g><path style="opacity:1" fill="#d35934" d="M 80.5,208.5 C 80.5,224.167 80.5,239.833 80.5,255.5C 89.1667,255.5 97.8333,255.5 106.5,255.5C 106.5,271.833 106.5,288.167 106.5,304.5C 105.354,306.475 103.687,307.975 101.5,309C 95.8431,309.499 90.1764,309.666 84.5,309.5C 82.4793,307.968 80.9793,305.968 80,303.5C 79.1693,271.664 79.336,239.997 80.5,208.5 Z"/></g>
<g><path style="opacity:1" fill="#e7a030" d="M 107.5,184.5 C 107.5,208.167 107.5,231.833 107.5,255.5C 125.167,255.5 142.833,255.5 160.5,255.5C 160.5,232.167 160.5,208.833 160.5,185.5C 161.496,199.657 161.829,213.99 161.5,228.5C 161.5,237.5 161.5,246.5 161.5,255.5C 161.5,264.5 161.5,273.5 161.5,282.5C 161.667,296.504 161.5,310.504 161,324.5C 160.1,329.737 157.266,333.571 152.5,336C 140.167,336.667 127.833,336.667 115.5,336C 110.938,334.373 108.105,331.206 107,326.5C 106.5,319.174 106.334,311.841 106.5,304.5C 106.5,288.167 106.5,271.833 106.5,255.5C 106.5,239.167 106.5,222.833 106.5,206.5C 106.175,198.981 106.508,191.648 107.5,184.5 Z"/></g>
<g><path style="opacity:1" fill="#cfd1d2" d="M 161.5,255.5 C 224.167,255.5 286.833,255.5 349.5,255.5C 349.5,264.5 349.5,273.5 349.5,282.5C 286.833,282.5 224.167,282.5 161.5,282.5C 161.5,273.5 161.5,264.5 161.5,255.5 Z"/></g>
<g><path style="opacity:1" fill="#e8a130" d="M 403.5,184.5 C 404.492,191.648 404.825,198.981 404.5,206.5C 404.5,222.833 404.5,239.167 404.5,255.5C 404.5,271.833 404.5,288.167 404.5,304.5C 404.666,311.841 404.5,319.174 404,326.5C 402.932,331.235 400.099,334.402 395.5,336C 383.167,336.667 370.833,336.667 358.5,336C 353.734,333.571 350.9,329.737 350,324.5C 349.5,310.504 349.333,296.504 349.5,282.5C 349.5,273.5 349.5,264.5 349.5,255.5C 349.5,246.5 349.5,237.5 349.5,228.5C 349.833,228.5 350.167,228.5 350.5,228.5C 350.5,237.5 350.5,246.5 350.5,255.5C 368.167,255.5 385.833,255.5 403.5,255.5C 403.5,231.833 403.5,208.167 403.5,184.5 Z"/></g>
<g><path style="opacity:1" fill="#d35934" d="M 430.5,206.5 C 430.833,206.5 431.167,206.5 431.5,206.5C 431.667,238.835 431.5,271.168 431,303.5C 428.42,308.93 424.086,310.93 418,309.5C 412.264,310.613 407.764,308.946 404.5,304.5C 404.5,288.167 404.5,271.833 404.5,255.5C 413.167,255.5 421.833,255.5 430.5,255.5C 430.5,239.167 430.5,222.833 430.5,206.5 Z"/></g>
</svg>
